<?xml version="1.0" encoding="UTF-8"?><svg id="Layer_2" xmlns="http://www.w3.org/2000/svg" viewBox="0 0 44.0004882812 44"><defs><style>.cls-1{fill:#202122;stroke-width:0px;}</style></defs><g id="Layer_1-2"><path class="cls-1" d="M42.0004882812,44H2c-1.1044921875,0-2-.8955078125-2-2v-16c0-1.1044921875.8955078125-2,2-2h4c1.1044921875,0,2,.8955078125,2,2s-.8955078125,2-2,2h-2v12h36.0004882812v-12h-2c-1.1044921875,0-2-.8955078125-2-2s.8955078125-2,2-2h4c1.1044921875,0,2,.8955078125,2,2v16c0,1.1044921875-.8955078125,2-2,2Z"/><path class="cls-1" d="M37.5561523438,15.5859375c-.78125-.78125-2.046875-.78125-2.828125,0l-10.728515625,10.7289428711V2c0-1.1044921875-.8950195312-2-1.9995117188-2s-2,.8955078125-2,2v24.3143920898l-10.7280273438-10.7284545898c-.78125-.78125-2.0478515625-.78125-2.828125,0-.78125.7807617188-.78125,2.0473632812,0,2.828125l14.1420898438,14.142578125c.375.375.8837890625.5859375,1.4140625.5859375s1.0390625-.2109375,1.4145507812-.5859375l14.1416015625-14.142578125c.78125-.7807617188.78125-2.0473632812,0-2.828125Z"/></g></svg>