<?xml version="1.0" encoding="UTF-8"?><svg id="Layer_2" xmlns="http://www.w3.org/2000/svg" viewBox="0 0 40 40"><defs><style>.cls-1{fill:#fff;}</style></defs><g id="Layer_1-2"><path class="cls-1" d="m22.8284,20L39.4142,3.4142c.7811-.7811.7811-2.0474,0-2.8284-.781-.7811-2.0474-.7811-2.8284,0l-16.5858,16.5858L3.4142.5858C2.6332-.1953,1.3668-.1953.5858.5858-.1953,1.3669-.1953,2.6332.5858,3.4142l16.5858,16.5858L.5858,36.5858c-.781.7811-.781,2.0474,0,2.8284.7811.7811,2.0474.7811,2.8284,0l16.5858-16.5858,16.5858,16.5858c.7811.7811,2.0474.7811,2.8284,0,.7811-.7811.7811-2.0474,0-2.8284l-16.5858-16.5858Z"/></g></svg>